<?xml version="1.0" encoding="UTF-8"?>
<svg width="120px" height="13px" viewBox="0 0 120 13" version="1.1" xmlns="http://www.w3.org/2000/svg" xmlns:xlink="http://www.w3.org/1999/xlink">
    <!-- Generator: Sketch 55 (78076) - https://sketchapp.com -->
    <title>Nighthawk Logo</title>
    <desc>Created with Sketch.</desc>
    <defs>
        <polygon id="path-1" points="0.019629705 0.067300885 2.81161343 0.067300885 2.81161343 2.6395177 0.019629705 2.6395177"></polygon>
    </defs>
    <g id="Page-1" stroke="none" stroke-width="1" fill="none" fill-rule="evenodd">
        <g id="Nighthawk" transform="translate(-200.000000, -258.000000)">
            <g id="Nighthawk-App-Promo-Banner---2" transform="translate(161.000000, 238.000000)">
                <g id="Bitmap">
                    <g id="Nighthawk-Logo" transform="translate(39.000000, 20.000000)">
                        <polygon id="Fill-1" fill="#F2F2F2" points="8.08736521 0.331695575 8.08736521 8.72405841 1.58258393 0.331695575 0 0.331695575 0 12.9309965 2.16427263 12.9309965 2.16427263 4.54208496 8.66587996 12.9309965 10.251882 12.9309965 10.251882 0.331695575"></polygon>
                        <polygon id="Fill-2" fill="#F2F2F2" points="14.3210173 12.9326991 16.4862665 12.9326991 16.4862665 0.333168142 14.3210173 0.333168142"></polygon>
                        <polygon id="Fill-3" fill="#F2F2F2" points="43.2146124 0.331695575 43.2146124 5.61268673 37.0113571 5.61268673 37.0113571 0.33319115 34.8462299 0.33319115 34.8462299 12.9327221 37.0113571 12.9327221 37.0113571 7.65299646 43.5992716 7.65299646 43.2146124 8.71715575 43.2146124 12.9327221 45.3797396 12.9327221 45.3797396 0.331695575"></polygon>
                        <polygon id="Fill-4" fill="#F2F2F2" points="47.5811963 0.333145133 48.3154791 2.37356991 53.126588 2.37356991 52.7421729 3.43634867 52.7421729 12.9326761 54.9076663 12.9326761 54.9076663 2.37356991 59.3316745 2.37356991 60.0688871 0.333145133"></polygon>
                        <polygon id="Fill-5" fill="#F2F2F2" points="62.4586083 0.331695575 62.4586083 12.9327221 64.6239797 12.9327221 64.6239797 7.65299646 71.2106734 7.65299646 70.8269908 8.71704071 70.8269908 12.9327221 72.9922401 12.9327221 72.9922401 0.33319115 70.8269908 0.33319115 70.8269908 5.61268673 64.6239797 5.61268673 64.6239797 0.331695575"></polygon>
                        <polygon id="Fill-6" fill="#F2F2F2" points="99.8530865 0.331695575 96.6665554 8.76789027 93.490767 1.2851823 90.3287731 8.73498761 87.4684273 0.331695575 84.8692004 0.331695575 89.3599837 12.8555274 89.3870844 12.9309965 90.8779898 12.9309965 93.4904008 6.77946549 96.1001261 12.9309965 97.5943276 12.9309965 102.059597 0.478261947 102.11209 0.331695575"></polygon>
                        <polygon id="Fill-7" fill="#F2F2F2" points="80.6078454 0.115090265 75.4977742 12.9317097 77.805119 12.9317097 78.948354 10.0774619 84.1740305 10.0652673 83.4408464 8.03301062 79.7629624 8.03301062 81.690409 3.20920531 81.7051801 3.17204602 80.6079674 0.115090265"></polygon>
                        <polygon id="Fill-8" fill="#F2F2F2" points="112.490734 0.333145133 106.523329 6.46040177 106.523329 0.333145133 104.357835 0.333145133 104.357835 12.9326761 106.523329 12.9326761 106.523329 6.80495929 112.490857 12.9326761 115.428598 12.9326761 109.297367 6.63262301 115.428964 0.333145133"></polygon>
                        <g id="Group-16" transform="translate(19.409969, 0.047743)">
                            <path d="M6.94912309,7.58950354 L9.22521668,7.58950354 L9.22521668,10.8473265 L6.8004354,10.8473265 C4.29899084,10.8473265 2.26387386,8.92930885 2.26387386,6.57193717 C2.26387386,4.21456549 4.29899084,2.29677788 6.8004354,2.29677788 L10.4117884,2.29677788 L11.1175056,0.258999115 L6.8004354,0.258999115 C3.10668159,0.258999115 0.101676501,3.09092832 0.101676501,6.57193717 C0.101676501,10.052946 3.10668159,12.8848752 6.8004354,12.8848752 L11.387292,12.8848752 L11.387292,5.55195487 L7.65484028,5.55195487 L6.94912309,7.58950354 Z" id="Fill-9" fill="#F2F2F2"></path>
                            <path d="M99.0732818,1.23702478 L98.9280122,1.23702478 L98.9280122,0.860945133 L99.047646,0.860945133 C99.1808301,0.860945133 99.3318372,0.883838938 99.3318372,1.05490973 C99.3318372,1.20722832 99.1927935,1.23702478 99.0732818,1.23702478 M99.7429868,1.02983009 C99.7429868,0.679635398 99.3759064,0.618431858 99.1114914,0.618431858 L98.5298026,0.618431858 L98.5298026,2.02967965 L98.9280122,2.02967965 L98.9280122,1.47102478 L99.0467915,1.47102478 L99.3173103,2.02967965 L99.7567813,2.02967965 L99.4351129,1.41085664 C99.6099247,1.35782124 99.7429868,1.22805133 99.7429868,1.02983009" id="Fill-11" fill="#F2F2F2"></path>
                            <g id="Group-15" transform="translate(97.660224, 0.000000)">
                                <mask id="mask-2" fill="white">
                                    <use xlink:href="#path-1"></use>
                                </mask>
                                <g id="Clip-14"></g>
                                <path d="M1.41531638,2.40195133 C0.821053917,2.40195133 0.275743642,1.95903097 0.275743642,1.35067699 C0.275743642,0.730243363 0.813485249,0.296986726 1.41787996,0.296986726 C2.01018922,0.296986726 2.56160326,0.743358407 2.56160326,1.35067699 C2.56160326,1.97088053 2.01861241,2.40195133 1.41531638,2.40195133 M1.41531638,0.0672433628 C0.685672431,0.0672433628 0.019629705,0.600933628 0.019629705,1.35067699 C0.019629705,2.09029646 0.692142421,2.6395177 1.41531638,2.6395177 C2.14483825,2.6395177 2.81161343,2.09639381 2.81161343,1.35067699 C2.81161343,0.587013274 2.16009766,0.0672433628 1.41531638,0.0672433628" id="Fill-13" fill="#F2F2F2" mask="url(#mask-2)"></path>
                            </g>
                        </g>
                    </g>
                </g>
            </g>
        </g>
    </g>
</svg>