<?xml version="1.0" encoding="UTF-8"?>
<svg width="40px" height="40px" viewBox="0 0 40 40" version="1.1" xmlns="http://www.w3.org/2000/svg" xmlns:xlink="http://www.w3.org/1999/xlink">
    <!-- Generator: Sketch 55.2 (78181) - https://sketchapp.com -->
    <title>Group 2</title>
    <desc>Created with Sketch.</desc>
    <g id="Page-1" stroke="none" stroke-width="1" fill="none" fill-rule="evenodd">
        <g id="Artboard">
            <g id="Group-2">
                <path d="M30.46875,5.85280616e-16 C36.25,5.85280616e-16 40,3.75 40,9.53125 L40,30.46875 C40,36.25 36.25,40 30.46875,40 L9.53125,40 C3.75,40 0,36.25 0,30.46875 L0,9.53125 C0,3.75 3.75,5.85280619e-16 9.53125,5.85280619e-16 L30.46875,5.85280616e-16 Z" id="App-Icon-Shape" fill="#2C262D"></path>
                <path d="M40,32 C40,32.166767 39.9955708,32.3315203 39.9867821,32.4942014 C39.7398444,37.0650878 36.0513127,40 30.46875,40 L9.53125,40 C3.94183045,40 0.251097556,37.0578737 0.0123235808,32.4773513 C0.00412879074,32.3201464 0,32.1610118 0,32 L40,32 Z" id="App-Icon-Shape" fill-opacity="0.15" fill="#FFFFFF"></path>
                <g id="logo-2" transform="translate(7.000000, 34.031250)" fill="#FFFFFF">
                    <g id="Group" transform="translate(0.109375, 0.031250)">
                        <path d="M26.0231683,0.567922284 L25.9789187,0.567922284 L25.9789187,0.445930177 L26.0153452,0.445930177 C26.0556832,0.445930177 26.1018887,0.453264372 26.1018887,0.508759779 C26.1018887,0.558143357 26.0595948,0.567922284 26.0231683,0.567922284 M26.0238284,0.188622175 C26.2502105,0.188622175 26.4484783,0.357064183 26.4484783,0.604715494 C26.4484783,0.846743923 26.2455655,1.0227646 26.0238284,1.0227646 C25.804047,1.0227646 25.599423,0.844788138 25.599423,0.604715494 C25.599423,0.361709173 25.8020912,0.188622175 26.0238284,0.188622175 Z M26.0238284,0.945755553 C26.2071833,0.945755553 26.3724471,0.805916905 26.3724471,0.604715494 C26.3724471,0.407670127 26.2047385,0.262942016 26.0245618,0.262942016 C25.840718,0.262942016 25.6774099,0.403514083 25.6774099,0.604715494 C25.6774099,0.802005335 25.8431627,0.945755553 26.0238284,0.945755553 Z M26.2268144,0.500692165 C26.2268144,0.564988606 26.1862319,0.607037989 26.1331812,0.624395584 L26.2309705,0.824863575 L26.0974881,0.824863575 L26.0151007,0.643708963 L25.9789187,0.643708963 L25.9789187,0.824863575 L25.8579045,0.824863575 L25.8579045,0.367209819 L26.034903,0.367209819 C26.1150902,0.367209819 26.2268144,0.387256618 26.2268144,0.500692165 Z M25.2261858,1.25220266 C25.2261858,1.72965874 24.946753,2.14110707 24.4296922,2.22862846 L25.5158865,3.64437253 L24.3644179,3.64437253 L23.5009387,2.31541643 L23.4334641,2.31541643 L23.4334641,3.64437253 L22.486864,3.64437253 L22.486864,0.188988885 L23.9607927,0.188988885 C24.6800328,0.188988885 25.2261858,0.515360554 25.2261858,1.25220266 Z M23.6767149,1.73772636 C23.9876848,1.73772636 24.2788523,1.68369779 24.2788523,1.30769807 C24.2788523,0.9312094 24.0153102,0.876936358 23.7045849,0.876936358 L23.4334641,0.876936358 L23.4334641,1.73772636 L23.6767149,1.73772636 Z M19.5275409,0.18903778 L20.6200914,0.18903778 L21.8920853,3.64442143 L20.9139482,3.64442143 L20.7059015,3.00830226 L19.4412419,3.00830226 L19.2331952,3.64442143 L18.2545691,3.64442143 L19.5275409,0.18903778 Z M19.6659127,2.32108821 L20.4812307,2.32108821 L20.086651,1.11485764 L20.0602479,1.11485764 L19.6659127,2.32108821 Z M15.3759955,3.64437253 L15.3759955,0.188988885 L17.6848,0.188988885 L17.6848,0.950278306 L16.3238179,0.950278306 L16.3238179,1.52723496 L17.6275933,1.52723496 L17.6275933,2.28705755 L16.3238179,2.28705755 L16.3238179,2.88430548 L17.6848,2.88430548 L17.6848,3.64437253 L15.3759955,3.64437253 Z M12.6921936,2.42046655 L12.6921936,1.71540596 L14.5440777,1.71540596 C14.5338099,2.21975409 14.4964055,2.64978238 14.1719896,3.08029961 C13.8153033,3.55335518 13.3067991,3.75822368 12.6968385,3.75822368 C11.5519707,3.75822368 10.7828582,3.02113711 10.7828582,1.93494285 C10.7828582,0.813299995 11.5287458,0.0740131579 12.7029504,0.0740131579 C13.4517717,0.0740131579 14.0319065,0.39598431 14.34581,1.04212687 L13.4471267,1.39905769 C13.317067,1.06975234 13.0408123,0.849726496 12.6596786,0.849726496 C12.0350497,0.849726496 11.7673516,1.41274818 11.7673516,1.93983232 C11.7673516,2.47522854 12.0783215,3.02113711 12.7014835,3.02113711 C13.1129319,3.02113711 13.3992099,2.81920228 13.4378367,2.42046655 L12.6921936,2.42046655 Z M7.59192114,0.950180517 L7.59192114,0.188891096 L10.3877162,0.188891096 L10.3877162,0.950180517 L9.47045291,0.950180517 L9.47045291,3.64427474 L8.50820655,3.64427474 L8.50820655,0.950180517 L7.59192114,0.950180517 Z M4.63709629,3.64437253 L4.63709629,0.188988885 L6.94541187,0.188988885 L6.94541187,0.950278306 L5.58491873,0.950278306 L5.58491873,1.52723496 L6.88844963,1.52723496 L6.88844963,2.28705755 L5.58491873,2.28705755 L5.58491873,2.88430548 L6.94541187,2.88430548 L6.94541187,3.64437253 L4.63709629,3.64437253 Z M2.57014906,2.30162815 L2.57014906,0.188891096 L3.51674914,0.188891096 L3.51674914,3.64427474 L2.57014906,3.64427474 L1.00258716,1.52713718 L0.992319286,1.52713718 L0.992319286,3.64427474 L0.0452302632,3.64427474 L0.0452302632,0.188891096 L0.992319286,0.188891096 L2.55988119,2.30162815 L2.57014906,2.30162815 Z" id="Combined-Shape"></path>
                    </g>
                </g>
                <path d="M26.4337266,8.14426901 C24.0374766,7.27969884 21.4935703,6.90400623 18.9960703,7.02076986 C16.4982891,7.13795452 14.0478984,7.74738492 11.8273594,8.79264401 C9.60471094,9.83516645 7.61894531,11.3149912 6,13.0947946 C7.78523437,11.4798917 9.87021094,10.2316295 12.0962344,9.44101901 C14.3211328,8.64725083 16.6815234,8.30748549 18.9960703,8.42417895 C21.3111797,8.54136361 23.5780547,9.11493691 25.6273125,10.0894642 C27.2770547,10.8712332 28.7816016,11.9129838 30.0835078,13.1500889 L27.5717344,16.0698113 C26.3175,15.0544449 24.8947266,14.2695883 23.3968594,13.7668872 C21.7379766,13.207348 19.9921172,12.9891179 18.2929453,13.1060219 C16.5934219,13.2230662 14.9410781,13.6750341 13.4579766,14.4152622 C11.9732578,15.1536659 10.6627031,16.1810315 9.60857812,17.397717 C10.8290625,16.3459321 12.2387578,15.5501991 13.7267812,15.0636372 C15.2143125,14.5749 16.7767266,14.3925971 18.2929453,14.5094309 C19.8097969,14.6265454 21.278625,15.0426562 22.5904453,15.7120122 C23.8085391,16.3316173 24.887625,17.1687508 25.7772891,18.1556983 L23.6585625,20.6186111 C22.9855312,20.1649591 22.2497109,19.8257551 21.4944141,19.6174892 C20.5632656,19.3589812 19.6049062,19.2962488 18.6935859,19.4131528 C17.7817734,19.530127 16.9169297,19.8267375 16.1614922,20.2658642 C15.4050703,20.704219 14.7608672,21.2849497 14.2638984,21.9459554 C14.9272266,21.4498503 15.6705703,21.1006821 16.4303672,20.9142392 C17.1901641,20.7266034 17.9650078,20.6996579 18.6935859,20.8165619 C19.4225156,20.9336062 20.1038437,21.1942895 20.6879297,21.5626142 C21.1650703,21.8627332 21.5749922,22.2342156 21.9109453,22.6500457 L18.8354062,26.2250199 L32.8941797,14.1794193 C32.9452969,14.1350014 33.0000703,14.0811807 33.0455625,14.0283423 C33.5293828,13.4659261 33.4889531,12.6325116 32.9718047,12.1171798 C31.0740703,10.3599713 28.8308906,9.00512015 26.4337266,8.14426901 Z" id="Fill-1" fill="#0074D9"></path>
            </g>
        </g>
    </g>
</svg>