<?xml version="1.0" encoding="UTF-8"?>
<svg width="60px" height="60px" viewBox="0 0 60 60" version="1.1" xmlns="http://www.w3.org/2000/svg" xmlns:xlink="http://www.w3.org/1999/xlink">
    <!-- Generator: Sketch 55.2 (78181) - https://sketchapp.com -->
    <title>Nighthawk 2-appicon</title>
    <desc>Created with Sketch.</desc>
    <defs>
        <filter x="-57.5%" y="-57.5%" width="215.0%" height="215.0%" filterUnits="objectBoundingBox" id="filter-1">
            <feOffset dx="0" dy="2" in="SourceAlpha" result="shadowOffsetOuter1"></feOffset>
            <feGaussianBlur stdDeviation="5" in="shadowOffsetOuter1" result="shadowBlurOuter1"></feGaussianBlur>
            <feColorMatrix values="0 0 0 0 0   0 0 0 0 0   0 0 0 0 0  0 0 0 0.844924607 0" type="matrix" in="shadowBlurOuter1" result="shadowMatrixOuter1"></feColorMatrix>
            <feMerge>
                <feMergeNode in="shadowMatrixOuter1"></feMergeNode>
                <feMergeNode in="SourceGraphic"></feMergeNode>
            </feMerge>
        </filter>
        <path d="M30.46875,5.85280616e-16 C36.25,5.85280616e-16 40,3.75 40,9.53125 L40,30.46875 C40,36.25 36.25,40 30.46875,40 L9.53125,40 C3.75,40 0,36.25 0,30.46875 L0,9.53125 C0,3.75 3.75,5.85280619e-16 9.53125,5.85280619e-16 L30.46875,5.85280616e-16 Z" id="path-2"></path>
        <path d="M20.4336984,1.21438392 C18.0374484,0.34981375 15.4935422,-0.0258788636 12.9960422,0.0908847727 C10.4982609,0.208069432 8.04787031,0.81749983 5.82733125,1.86275892 C3.60468281,2.90528136 1.61891719,4.38510608 -2.81249993e-05,6.16490949 C1.78520625,4.55000665 3.87018281,3.30174443 6.09620625,2.51113392 C8.32110469,1.71736574 10.6814953,1.3776004 12.9960422,1.49429386 C15.3111516,1.61147852 17.5780266,2.18505182 19.6272844,3.15957909 C21.2770266,3.94134813 22.7815734,4.98309869 24.0834797,6.22020381 L21.5717063,9.13992625 C20.3174719,8.12455977 18.8946984,7.33970324 17.3968313,6.8370021 C15.7379484,6.2774629 13.9920891,6.05923278 12.2929172,6.17613676 C10.5933938,6.29318108 8.94105,6.74514898 7.45794844,7.4853771 C5.97322969,8.2237808 4.662675,9.25114642 3.60855,10.4678319 C4.82903438,9.41604699 6.23872969,8.62031403 7.72675313,8.1337521 C9.21428438,7.64501489 10.7766984,7.46271205 12.2929172,7.57954585 C13.8097688,7.69666034 15.2785969,8.11277114 16.5904172,8.7821271 C17.8085109,9.40173222 18.8875969,10.2388657 19.7772609,11.2258132 L17.6585344,13.688726 C16.9855031,13.235074 16.2496828,12.89587 15.4943859,12.6876041 C14.5632375,12.4290961 13.6048781,12.3663638 12.6935578,12.4832677 C11.7817453,12.6002419 10.9169016,12.8968524 10.1614641,13.3359791 C9.40504219,13.7743339 8.76083906,14.3550646 8.26387031,15.0160703 C8.92719844,14.5199652 9.67054219,14.170797 10.4303391,13.9843541 C11.1901359,13.7967183 11.9649797,13.7697728 12.6935578,13.8866768 C13.4224875,14.0037211 14.1038156,14.2644044 14.6879016,14.6327291 C15.1650422,14.9328481 15.5749641,15.3043305 15.9109172,15.7201606 L12.8353781,19.2951348 L26.8941516,7.2495342 C26.9452688,7.20511631 27.0000422,7.15129557 27.0455344,7.09845722 C27.5293547,6.53604102 27.488925,5.70262653 26.9717766,5.18729472 C25.0740422,3.43008619 22.8308625,2.07523506 20.4336984,1.21438392 Z" id="path-4"></path>
        <filter x="-158.8%" y="-75.4%" width="311.8%" height="380.9%" filterUnits="objectBoundingBox" id="filter-5">
            <feOffset dx="-20" dy="16" in="SourceAlpha" result="shadowOffsetOuter1"></feOffset>
            <feGaussianBlur stdDeviation="4.5" in="shadowOffsetOuter1" result="shadowBlurOuter1"></feGaussianBlur>
            <feColorMatrix values="0 0 0 0 0   0 0 0 0 0   0 0 0 0 0  0 0 0 0.2 0" type="matrix" in="shadowBlurOuter1"></feColorMatrix>
        </filter>
    </defs>
    <g id="Page-1" stroke="none" stroke-width="1" fill="none" fill-rule="evenodd">
        <g id="Nighthawk-2-appicon" filter="url(#filter-1)" transform="translate(10.000000, 8.000000)">
            <g id="Nighthawk">
                <mask id="mask-3" fill="white">
                    <use xlink:href="#path-2"></use>
                </mask>
                <g id="App-Icon-Shape"></g>
                <rect id="Background" fill="#2C262D" mask="url(#mask-3)" x="0" y="0" width="40" height="40"></rect>
                <g id="Group-2" mask="url(#mask-3)">
                    <g transform="translate(0.000000, 32.031250)">
                        <rect id="Combined-Shape" fill="#FFFFFF" opacity="0.150000006" x="0" y="0" width="40" height="7.89473684"></rect>
                        <g id="Group" stroke-width="1" fill="none" transform="translate(7.109375, 2.031250)">
                            <path d="M26.0231683,0.567922284 L25.9789187,0.567922284 L25.9789187,0.445930177 L26.0153452,0.445930177 C26.0556832,0.445930177 26.1018887,0.453264372 26.1018887,0.508759779 C26.1018887,0.558143357 26.0595948,0.567922284 26.0231683,0.567922284 M26.0238284,0.188622175 C26.2502105,0.188622175 26.4484783,0.357064183 26.4484783,0.604715494 C26.4484783,0.846743923 26.2455655,1.0227646 26.0238284,1.0227646 C25.804047,1.0227646 25.599423,0.844788138 25.599423,0.604715494 C25.599423,0.361709173 25.8020912,0.188622175 26.0238284,0.188622175 Z M26.0238284,0.945755553 C26.2071833,0.945755553 26.3724471,0.805916905 26.3724471,0.604715494 C26.3724471,0.407670127 26.2047385,0.262942016 26.0245618,0.262942016 C25.840718,0.262942016 25.6774099,0.403514083 25.6774099,0.604715494 C25.6774099,0.802005335 25.8431627,0.945755553 26.0238284,0.945755553 Z M26.2268144,0.500692165 C26.2268144,0.564988606 26.1862319,0.607037989 26.1331812,0.624395584 L26.2309705,0.824863575 L26.0974881,0.824863575 L26.0151007,0.643708963 L25.9789187,0.643708963 L25.9789187,0.824863575 L25.8579045,0.824863575 L25.8579045,0.367209819 L26.034903,0.367209819 C26.1150902,0.367209819 26.2268144,0.387256618 26.2268144,0.500692165 Z M25.2261858,1.25220266 C25.2261858,1.72965874 24.946753,2.14110707 24.4296922,2.22862846 L25.5158865,3.64437253 L24.3644179,3.64437253 L23.5009387,2.31541643 L23.4334641,2.31541643 L23.4334641,3.64437253 L22.486864,3.64437253 L22.486864,0.188988885 L23.9607927,0.188988885 C24.6800328,0.188988885 25.2261858,0.515360554 25.2261858,1.25220266 Z M23.6767149,1.73772636 C23.9876848,1.73772636 24.2788523,1.68369779 24.2788523,1.30769807 C24.2788523,0.9312094 24.0153102,0.876936358 23.7045849,0.876936358 L23.4334641,0.876936358 L23.4334641,1.73772636 L23.6767149,1.73772636 Z M19.5275409,0.18903778 L20.6200914,0.18903778 L21.8920853,3.64442143 L20.9139482,3.64442143 L20.7059015,3.00830226 L19.4412419,3.00830226 L19.2331952,3.64442143 L18.2545691,3.64442143 L19.5275409,0.18903778 Z M19.6659127,2.32108821 L20.4812307,2.32108821 L20.086651,1.11485764 L20.0602479,1.11485764 L19.6659127,2.32108821 Z M15.3759955,3.64437253 L15.3759955,0.188988885 L17.6848,0.188988885 L17.6848,0.950278306 L16.3238179,0.950278306 L16.3238179,1.52723496 L17.6275933,1.52723496 L17.6275933,2.28705755 L16.3238179,2.28705755 L16.3238179,2.88430548 L17.6848,2.88430548 L17.6848,3.64437253 L15.3759955,3.64437253 Z M12.6921936,2.42046655 L12.6921936,1.71540596 L14.5440777,1.71540596 C14.5338099,2.21975409 14.4964055,2.64978238 14.1719896,3.08029961 C13.8153033,3.55335518 13.3067991,3.75822368 12.6968385,3.75822368 C11.5519707,3.75822368 10.7828582,3.02113711 10.7828582,1.93494285 C10.7828582,0.813299995 11.5287458,0.0740131579 12.7029504,0.0740131579 C13.4517717,0.0740131579 14.0319065,0.39598431 14.34581,1.04212687 L13.4471267,1.39905769 C13.317067,1.06975234 13.0408123,0.849726496 12.6596786,0.849726496 C12.0350497,0.849726496 11.7673516,1.41274818 11.7673516,1.93983232 C11.7673516,2.47522854 12.0783215,3.02113711 12.7014835,3.02113711 C13.1129319,3.02113711 13.3992099,2.81920228 13.4378367,2.42046655 L12.6921936,2.42046655 Z M7.59192114,0.950180517 L7.59192114,0.188891096 L10.3877162,0.188891096 L10.3877162,0.950180517 L9.47045291,0.950180517 L9.47045291,3.64427474 L8.50820655,3.64427474 L8.50820655,0.950180517 L7.59192114,0.950180517 Z M4.63709629,3.64437253 L4.63709629,0.188988885 L6.94541187,0.188988885 L6.94541187,0.950278306 L5.58491873,0.950278306 L5.58491873,1.52723496 L6.88844963,1.52723496 L6.88844963,2.28705755 L5.58491873,2.28705755 L5.58491873,2.88430548 L6.94541187,2.88430548 L6.94541187,3.64437253 L4.63709629,3.64437253 Z M2.57014906,2.30162815 L2.57014906,0.188891096 L3.51674914,0.188891096 L3.51674914,3.64427474 L2.57014906,3.64427474 L1.00258716,1.52713718 L0.992319286,1.52713718 L0.992319286,3.64427474 L0.0452302632,3.64427474 L0.0452302632,0.188891096 L0.992319286,0.188891096 L2.55988119,2.30162815 L2.57014906,2.30162815 Z" id="Combined-Shape" fill="#FFFFFF"></path>
                        </g>
                    </g>
                </g>
                <g id="Page-1" mask="url(#mask-3)">
                    <g transform="translate(6.250000, 7.187500)" id="Fill-1">
                        <g>
                            <use fill="black" fill-opacity="1" filter="url(#filter-5)" xlink:href="#path-4"></use>
                            <use fill="#0074D9" fill-rule="evenodd" xlink:href="#path-4"></use>
                        </g>
                    </g>
                </g>
            </g>
        </g>
    </g>
</svg>