<?xml version="1.0" encoding="utf-8"?>
<!-- Generator: Adobe Illustrator 16.0.0, SVG Export Plug-In . SVG Version: 6.00 Build 0)  -->
<!DOCTYPE svg PUBLIC "-//W3C//DTD SVG 1.1//EN" "http://www.w3.org/Graphics/SVG/1.1/DTD/svg11.dtd">
<svg version="1.1" id="Layer_1" xmlns="http://www.w3.org/2000/svg" xmlns:xlink="http://www.w3.org/1999/xlink" x="0px" y="0px"
	 width="1971.169px" height="723.337px" viewBox="-1122.131 -58.5 1971.169 723.337"
	 enable-background="new -1122.131 -58.5 1971.169 723.337" xml:space="preserve">
<g>
	
		<line fill="none" stroke="#0CAF50" stroke-width="10" stroke-linecap="square" stroke-miterlimit="10" x1="396.039" y1="381.778" x2="-32.661" y2="381.778"/>
	<g id="XMLID_1_">
		<path id="XMLID_24_" fill="none" stroke="#FFFFFF" stroke-width="10" stroke-miterlimit="10" d="M-1113.538,659.836"/>
		
			<line id="XMLID_23_" fill="none" stroke="#FFFFFF" stroke-width="10" stroke-miterlimit="10" x1="-1113.538" y1="659.836" x2="-1043.511" y2="577.745"/>
		<path id="XMLID_22_" fill="none" stroke="#FFFFFF" stroke-width="10" stroke-miterlimit="10" d="M-1055.88,598.325
			c-1.862,0.004-2.974-2.336-1.896-3.857"/>
		<path id="XMLID_21_" fill="none" stroke="#FFFFFF" stroke-width="10" stroke-miterlimit="10" d="M-739.886,435.571v-17.98
			l-4.041-7.273l-5.657-462.874c-5.01-1.219-21.856-1.296-26.131,0l-1.952,462.874l-4.041,7.273v17.98"/>
		<path id="XMLID_20_" fill="none" stroke="#FFFFFF" stroke-width="10" stroke-miterlimit="10" d="M-980.452,480.879h-5.519
			l-0.867-1.182c-0.598-0.814-1.548-1.295-2.558-1.295h-13.841c-1.076,0-2.079,0.547-2.663,1.447l-1.284,1.986h-2.828l-1.546-2.389
			c-0.422-0.652-1.146-1.047-1.923-1.047h-43.496c-1.022,0-1.922,0.68-2.203,1.66l-1.95,6.824l-5.051-0.336
			c0,0-0.202-9.697,4.041-11.381v-22.225l-1.798-6.361c-0.55-1.945-0.841-3.957-0.867-5.979l-5.994-471.708
			c-0.016-1.254-1.036-2.262-2.29-2.262h-22.269c-1.259,0-2.281,1.015-2.291,2.273l-3.647,469.103
			c-0.023,3.326-0.678,6.617-1.923,9.703l-2.358,5.836v63.707c0,2.902,2.284,5.293,5.187,5.424c0,0,16.224,2.084,21.485,0.979
			c5.116-1.078,10.234-3.771,12.525-9.496h5.656l0.736,5.299c0.155,1.133,1.125,1.977,2.269,1.977h43.916"/>
		
			<line id="XMLID_19_" fill="none" stroke="#FFFFFF" stroke-width="10" stroke-miterlimit="10" x1="-1010.012" y1="481.838" x2="-1010.516" y2="516.989"/>
		
			<line id="XMLID_18_" fill="none" stroke="#FFFFFF" stroke-width="10" stroke-miterlimit="10" x1="-1061.129" y1="486.889" x2="-1060.725" y2="514.165"/>
		
			<line id="XMLID_17_" fill="none" stroke="#FFFFFF" stroke-width="10" stroke-miterlimit="10" x1="-1066.18" y1="486.889" x2="-1066.382" y2="514.165"/>
		<polygon id="XMLID_16_" fill="none" stroke="#FFFFFF" stroke-width="10" stroke-miterlimit="10" points="-1113.538,659.836 
			-1079.313,599.627 -942.734,435.571 -264.878,435.571 -128.3,599.627 -94.075,659.836 		"/>
		<path id="XMLID_15_" fill="none" stroke="#FFFFFF" stroke-width="10" stroke-miterlimit="10" d="M-94.075,659.836"/>
		<path id="XMLID_14_" fill="none" stroke="#FFFFFF" stroke-width="10" stroke-miterlimit="10" d="M-264.878,435.571L-164.1,577.745
			c1.078,1.52-0.012,3.623-1.875,3.619h-875.662c-1.863,0.004-2.951-2.102-1.875-3.619l100.778-142.172"/>
		
			<line id="XMLID_13_" fill="none" stroke="#FFFFFF" stroke-width="10" stroke-miterlimit="10" x1="-94.075" y1="659.836" x2="-164.101" y2="577.745"/>
		<path id="XMLID_12_" fill="none" stroke="#FFFFFF" stroke-width="10" stroke-miterlimit="10" d="M-151.732,598.325
			c1.862,0.004,2.974-2.336,1.896-3.857"/>
		
			<line id="XMLID_11_" fill="none" stroke="#FFFFFF" stroke-width="10" stroke-miterlimit="10" x1="-151.732" y1="598.325" x2="-1055.88" y2="598.325"/>
		<path id="XMLID_10_" fill="none" stroke="#FFFFFF" stroke-width="10" stroke-miterlimit="10" d="M-467.726,435.571v-17.98
			l4.041-7.273l5.657-462.874c5.01-1.219,21.856-1.296,26.131,0l1.952,462.874l4.042,7.273v17.98"/>
		<path id="XMLID_9_" fill="none" stroke="#FFFFFF" stroke-width="10" stroke-miterlimit="10" d="M-227.161,480.879h5.519
			l0.867-1.182c0.599-0.814,1.548-1.295,2.558-1.295h13.841c1.076,0,2.078,0.547,2.664,1.447l1.285,1.986h2.828l1.546-2.389
			c0.422-0.652,1.146-1.047,1.923-1.047h43.495c1.021,0,1.922,0.68,2.203,1.66l1.949,6.824l5.052-0.336c0,0,0.202-9.697-4.04-11.381
			v-22.225l1.798-6.361c0.55-1.945,0.842-3.957,0.867-5.979l5.993-471.707c0.017-1.254,1.036-2.262,2.291-2.262h22.269
			c1.259,0,2.281,1.016,2.291,2.273l3.646,469.102c0.025,3.326,0.68,6.619,1.926,9.703l2.355,5.838v63.705
			c0,2.904-2.284,5.293-5.185,5.426c0,0-16.226,2.084-21.485,0.979c-5.118-1.078-10.236-3.771-12.527-9.496h-5.654l-0.735,5.297
			c-0.158,1.133-1.126,1.979-2.271,1.979h-43.916"/>
		
			<line id="XMLID_8_" fill="none" stroke="#FFFFFF" stroke-width="10" stroke-miterlimit="10" x1="-197.6" y1="481.838" x2="-197.098" y2="516.989"/>
		
			<line id="XMLID_7_" fill="none" stroke="#FFFFFF" stroke-width="10" stroke-miterlimit="10" x1="-146.483" y1="486.889" x2="-146.887" y2="514.165"/>
		
			<line id="XMLID_6_" fill="none" stroke="#FFFFFF" stroke-width="10" stroke-miterlimit="10" x1="-141.432" y1="486.889" x2="-141.23" y2="514.165"/>
		
			<line id="XMLID_5_" fill="none" stroke="#FFFFFF" stroke-width="10" stroke-miterlimit="10" x1="-1101.231" y1="429.784" x2="-1064.935" y2="429.784"/>
		
			<line id="XMLID_4_" fill="none" stroke="#FFFFFF" stroke-width="10" stroke-miterlimit="10" x1="-777.604" y1="395.299" x2="-744.11" y2="395.299"/>
		
			<line id="XMLID_3_" fill="none" stroke="#FFFFFF" stroke-width="10" stroke-miterlimit="10" x1="-463.502" y1="395.299" x2="-430.008" y2="395.299"/>
		
			<line id="XMLID_2_" fill="none" stroke="#FFFFFF" stroke-width="10" stroke-miterlimit="10" x1="-142.67" y1="429.784" x2="-106.629" y2="429.784"/>
	</g>
	<circle fill="#0CAF50" cx="620.039" cy="381.778" r="224"/>
</g>
<line fill="none" stroke="#FFFFFF" stroke-width="10" stroke-linecap="square" stroke-miterlimit="10" x1="528.886" y1="381.825" x2="586.803" y2="439.743"/>
<line fill="none" stroke="#FFFFFF" stroke-width="10" stroke-linecap="square" stroke-miterlimit="10" x1="702.621" y1="323.887" x2="586.784" y2="439.723"/>
</svg>
