<?xml version="1.0" encoding="utf-8"?>
<!-- Generator: Adobe Illustrator 16.0.0, SVG Export Plug-In . SVG Version: 6.00 Build 0)  -->
<!DOCTYPE svg PUBLIC "-//W3C//DTD SVG 1.1//EN" "http://www.w3.org/Graphics/SVG/1.1/DTD/svg11.dtd">
<svg version="1.1" id="Layer_1" xmlns="http://www.w3.org/2000/svg" xmlns:xlink="http://www.w3.org/1999/xlink" x="0px" y="0px"
	 viewBox="0 0 63.455 11.95" enable-background="new 0 0 63.455 11.95" xml:space="preserve">
<g id="XMLID_146_">
	<path id="XMLID_165_" fill="#FFFFFF" d="M54.694,5.963c0,1.918-0.476,3.393-1.427,4.424s-2.315,1.546-4.092,1.546
		c-1.775,0-3.14-0.515-4.092-1.546c-0.951-1.031-1.427-2.512-1.427-4.44c0-1.929,0.477-3.402,1.431-4.42
		C46.042,0.509,47.41,0,49.191,0s3.145,0.513,4.088,1.539C54.223,2.564,54.694,4.039,54.694,5.963z M46.234,5.963
		c0,1.295,0.246,2.27,0.737,2.925s1.227,0.983,2.204,0.983c1.961,0,2.941-1.303,2.941-3.909c0-2.611-0.975-3.917-2.926-3.917
		c-0.979,0-1.715,0.329-2.211,0.987C46.482,3.691,46.234,4.667,46.234,5.963z"/>
	<path id="XMLID_164_" fill="#FFFFFF" d="M63.455,8.555c0,1.047-0.376,1.871-1.129,2.475c-0.754,0.602-1.802,0.903-3.145,0.903
		c-1.236,0-2.331-0.232-3.282-0.698V8.952c0.782,0.35,1.444,0.596,1.986,0.737c0.542,0.144,1.037,0.214,1.486,0.214
		c0.54,0,0.952-0.103,1.241-0.309c0.287-0.207,0.432-0.514,0.432-0.92c0-0.228-0.063-0.43-0.189-0.607
		c-0.127-0.176-0.313-0.347-0.56-0.511c-0.245-0.164-0.747-0.425-1.502-0.785c-0.709-0.333-1.24-0.652-1.594-0.959
		c-0.354-0.307-0.638-0.663-0.849-1.07c-0.211-0.407-0.317-0.883-0.317-1.427c0-1.025,0.348-1.832,1.042-2.418
		c0.695-0.587,1.656-0.88,2.883-0.88c0.603,0,1.178,0.071,1.725,0.214c0.547,0.143,1.119,0.343,1.717,0.603l-0.793,1.911
		c-0.619-0.253-1.13-0.431-1.534-0.531s-0.803-0.15-1.193-0.15c-0.466,0-0.822,0.108-1.071,0.325
		c-0.248,0.217-0.372,0.5-0.372,0.848c0,0.217,0.05,0.406,0.151,0.567c0.1,0.161,0.26,0.317,0.479,0.468
		c0.22,0.151,0.739,0.422,1.559,0.813c1.084,0.518,1.826,1.037,2.229,1.558C63.254,7.161,63.455,7.799,63.455,8.555z"/>
	<path id="XMLID_159_" fill="#de1821" d="M8.907,5.811c0,1.966-0.519,3.457-1.55,4.465c-1.032,1.009-2.548,1.512-4.548,1.512H0
		V0.058h3.17c1.875,0,3.296,0.49,4.272,1.469C8.419,2.503,8.907,3.933,8.907,5.811z M8.015,5.844c0-1.68-0.432-2.944-1.284-3.795
		C5.876,1.203,4.625,0.777,2.97,0.777H0.811v10.284h1.942C6.266,11.065,8.015,9.325,8.015,5.844z"/>
	<path id="XMLID_156_" fill="#de1821" d="M19.185,0.058v7.591c0,1.348-0.39,2.402-1.17,3.16c-0.782,0.76-1.875,1.141-3.269,1.141
		c-1.357,0-2.418-0.382-3.182-1.145c-0.76-0.764-1.143-1.824-1.143-3.189V0.058h0.828v7.591c0,1.129,0.311,2.006,0.934,2.638
		c0.625,0.624,1.507,0.939,2.654,0.939c1.113,0,1.981-0.308,2.601-0.925c0.619-0.617,0.917-1.474,0.917-2.569V0.06L19.185,0.058
		L19.185,0.058z"/>
	<path id="XMLID_155_" fill="#de1821" d="M26.059,11.788L21.69,0.954h-0.062c0.045,0.664,0.062,1.343,0.062,2.039v8.795h-0.787
		V0.058h1.269l4.155,10.319h0.049l4.157-10.319h1.233v11.733h-0.823V2.896c0-0.621,0.038-1.263,0.095-1.924h-0.062l-4.391,10.815
		H26.059L26.059,11.788z"/>
	<path id="XMLID_152_" fill="#de1821" d="M40.549,7.647h-4.761l-1.643,4.141H33.24l4.717-11.778h0.527l4.614,11.778h-0.921
		L40.549,7.647z M36.08,6.908h4.191l-1.594-4.227c-0.135-0.331-0.295-0.792-0.482-1.379c-0.144,0.513-0.304,0.979-0.473,1.396
		L36.08,6.908z"/>
</g>
</svg>
