<?xml version="1.0" encoding="utf-8"?>
<!-- Generator: Adobe Illustrator 19.0.0, SVG Export Plug-In . SVG Version: 6.00 Build 0)  -->
<svg version="1.1" id="Layer_1" xmlns="http://www.w3.org/2000/svg" xmlns:xlink="http://www.w3.org/1999/xlink" x="0px" y="0px"
	 viewBox="0 0 127.559 127.559" style="enable-background:new 0 0 127.559 127.559;" xml:space="preserve">
<style type="text/css">
	.st0{fill:none;stroke:#FFFFFF;stroke-width:0.5;stroke-miterlimit:10;}
	.st1{fill:#FFFFFF;}
</style>
<polyline id="XMLID_186_" class="st0" points="19.071,73.152 16.613,32.507 13.696,32.507 11.613,34.091 13.53,80.479 
	14.706,81.691 "/>
<polyline id="XMLID_184_" class="st0" points="17.798,75.6 15.363,34.091 11.613,34.091 "/>
<line id="XMLID_187_" class="st0" x1="15.363" y1="34.091" x2="16.613" y2="32.507"/>
<polyline id="XMLID_185_" class="st0" points="43.86,67.213 43.571,25.299 44.28,24.049 47.405,24.049 48.572,66.934 "/>
<line id="XMLID_188_" class="st0" x1="47.439" y1="25.299" x2="43.571" y2="25.299"/>
<path id="XMLID_201_" class="st0" d="M102.215,69.244c0,0-16.185-2.835-38.435-2.618c-22.25-0.217-38.435,2.618-38.435,2.618"/>
<path id="XMLID_200_" class="st0" d="M63.78,102.629c17.804,0,14.295-1.193,27.2-1.084s26.569,1.952,26.569,1.952
	s1.522,0.198,2.34-0.94c0.758-1.054,1.347-1.988,1.347-1.988c-3.47-10.411-15.291-32.208-15.291-32.208h-1.735
	c0,0-7.413,3.548-14.763,8.729C80.987,83.054,73.52,91.269,63.78,91.269s-17.207-8.215-25.667-14.178
	c-7.35-5.181-14.763-8.729-14.763-8.729h-1.735c0,0-11.82,21.797-15.291,32.208c0,0,0.589,0.934,1.347,1.988
	c0.818,1.137,2.34,0.94,2.34,0.94s13.664-1.844,26.569-1.952S45.975,102.629,63.78,102.629z"/>
<path id="XMLID_199_" class="st0" d="M121.235,100.569c0,0-39.257-2.386-57.455-2.386s-57.455,2.386-57.455,2.386"/>
<polyline id="XMLID_198_" class="st0" points="108.488,73.152 110.946,32.507 113.863,32.507 115.946,34.091 114.03,80.479 
	112.853,81.691 "/>
<polyline id="XMLID_197_" class="st0" points="109.761,75.6 112.196,34.091 115.946,34.091 "/>
<line id="XMLID_196_" class="st0" x1="112.196" y1="34.091" x2="110.946" y2="32.507"/>
<polyline id="XMLID_195_" class="st0" points="83.699,67.213 83.988,25.299 83.28,24.049 80.155,24.049 78.987,66.934 "/>
<line id="XMLID_194_" class="st0" x1="80.12" y1="25.299" x2="83.988" y2="25.299"/>
<path id="XMLID_193_" class="st0" d="M89.446,77.091C78.987,83.674,78.29,84.536,72.28,87.507c-3.167,1.566-8.5,1.5-8.5,1.5
	s-5.333,0.066-8.5-1.5c-6.011-2.972-6.708-3.833-17.167-10.417"/>
<g id="XMLID_1_">
	<path id="XMLID_106_" class="st1" d="M57.169,73.098c1.85,0.318,4.061,0.62,6.093,0.69c4.228,0.146,9.856,0.685,12.66,2.425
		c0.259,0.161,0.418,0.397,0.515,0.624c-1.14-0.253-3.376-0.679-5.759-0.746c-2.647,0.116-4.521,0.562-5.066,0.705
		c-4.542-1.613-9.669-2.058-13.48-2.12c0.542-0.091,1.043-0.15,1.436-0.15c0.064,0,0.124,0.002,0.181,0.005
		c1.411,0.084,4.881,0.099,5.028,0.1l3.85,0.016l-3.718-0.999C58.897,73.646,58.045,73.416,57.169,73.098 M53.092,71.757
		c0,0,1.651,0.788,2.781,1.344c1.122,0.552,2.906,1.031,2.906,1.031s-3.587-0.015-5.001-0.099c-0.067-0.004-0.137-0.006-0.211-0.006
		c-1.904,0-6.068,1.267-6.068,1.267s1.432-0.126,3.649-0.125c3.656,0,9.443,0.342,14.443,2.152c0,0,2.031-0.595,5.108-0.73
		c3.296,0.094,6.392,0.916,6.392,0.916s0-1.156-0.906-1.719c-2.837-1.761-8.375-2.344-12.906-2.5
		C58.63,73.128,53.092,71.757,53.092,71.757L53.092,71.757z"/>
</g>
</svg>
