<?xml version="1.0" encoding="utf-8"?>
<!-- Generator: Adobe Illustrator 16.0.0, SVG Export Plug-In . SVG Version: 6.00 Build 0)  -->
<!DOCTYPE svg PUBLIC "-//W3C//DTD SVG 1.1//EN" "http://www.w3.org/Graphics/SVG/1.1/DTD/svg11.dtd">
<svg version="1.1" id="Layer_1" xmlns="http://www.w3.org/2000/svg" xmlns:xlink="http://www.w3.org/1999/xlink" x="0px" y="0px"
	 width="1971.17px" height="723.337px" viewBox="0 0 1971.17 723.337" enable-background="new 0 0 1971.17 723.337"
	 xml:space="preserve">
<g>
	<g>
		<g>
			
				<line fill="none" stroke="#DE1821" stroke-width="10" stroke-linecap="square" stroke-miterlimit="10" x1="1518.17" y1="440.278" x2="1512.17" y2="440.278"/>
			
				<line fill="none" stroke="#DE1821" stroke-width="10" stroke-linecap="square" stroke-miterlimit="10" stroke-dasharray="11.9057,23.8114" x1="1488.358" y1="440.278" x2="1107.376" y2="440.278"/>
			
				<line fill="none" stroke="#DE1821" stroke-width="10" stroke-linecap="square" stroke-miterlimit="10" x1="1095.471" y1="440.278" x2="1089.471" y2="440.278"/>
		</g>
	</g>
	<g id="XMLID_1_">
		<path id="XMLID_24_" fill="none" stroke="#FFFFFF" stroke-width="10" stroke-miterlimit="10" d="M8.593,718.337"/>
		
			<line id="XMLID_23_" fill="none" stroke="#FFFFFF" stroke-width="10" stroke-miterlimit="10" x1="8.593" y1="718.337" x2="78.62" y2="636.245"/>
		<path id="XMLID_22_" fill="none" stroke="#FFFFFF" stroke-width="10" stroke-miterlimit="10" d="M66.25,656.825
			c-1.862,0.004-2.974-2.336-1.896-3.857"/>
		<path id="XMLID_21_" fill="none" stroke="#FFFFFF" stroke-width="10" stroke-miterlimit="10" d="M382.245,494.071v-17.98
			l-4.041-7.273L372.546,5.943c-5.01-1.219-21.856-1.296-26.131,0l-1.952,462.874l-4.041,7.273v17.98"/>
		<path id="XMLID_20_" fill="none" stroke="#FFFFFF" stroke-width="10" stroke-miterlimit="10" d="M141.679,539.38h-5.519
			l-0.867-1.182c-0.598-0.814-1.548-1.295-2.558-1.295h-13.841c-1.076,0-2.079,0.547-2.663,1.447l-1.284,1.986h-2.828l-1.546-2.389
			c-0.422-0.652-1.146-1.047-1.923-1.047H65.155c-1.022,0-1.922,0.68-2.203,1.66l-1.95,6.824l-5.051-0.336
			c0,0-0.202-9.697,4.041-11.381v-22.225l-1.798-6.361c-0.55-1.945-0.841-3.957-0.867-5.979L51.333,27.396
			c-0.016-1.254-1.036-2.262-2.29-2.262H26.774c-1.259,0-2.281,1.015-2.291,2.273l-3.647,469.103
			c-0.023,3.326-0.678,6.617-1.923,9.703l-2.358,5.836v63.707c0,2.902,2.284,5.293,5.187,5.424c0,0,16.224,2.084,21.485,0.979
			c5.116-1.078,10.234-3.771,12.525-9.496h5.656l0.736,5.299c0.155,1.133,1.125,1.977,2.269,1.977h43.916"/>
		
			<line id="XMLID_19_" fill="none" stroke="#FFFFFF" stroke-width="10" stroke-miterlimit="10" x1="112.119" y1="540.339" x2="111.615" y2="575.489"/>
		
			<line id="XMLID_18_" fill="none" stroke="#FFFFFF" stroke-width="10" stroke-miterlimit="10" x1="61.001" y1="545.39" x2="61.406" y2="572.665"/>
		
			<line id="XMLID_17_" fill="none" stroke="#FFFFFF" stroke-width="10" stroke-miterlimit="10" x1="55.951" y1="545.39" x2="55.749" y2="572.665"/>
		<polygon id="XMLID_16_" fill="none" stroke="#FFFFFF" stroke-width="10" stroke-miterlimit="10" points="8.593,718.337 
			42.818,658.128 179.397,494.071 857.252,494.071 993.83,658.128 1028.057,718.337 		"/>
		<path id="XMLID_15_" fill="none" stroke="#FFFFFF" stroke-width="10" stroke-miterlimit="10" d="M1028.057,718.337"/>
		<path id="XMLID_14_" fill="none" stroke="#FFFFFF" stroke-width="10" stroke-miterlimit="10" d="M857.252,494.071l100.778,142.174
			c1.078,1.52-0.012,3.623-1.875,3.619H80.494c-1.863,0.004-2.951-2.102-1.875-3.619l100.778-142.172"/>
		
			<line id="XMLID_13_" fill="none" stroke="#FFFFFF" stroke-width="10" stroke-miterlimit="10" x1="1028.057" y1="718.337" x2="958.03" y2="636.245"/>
		<path id="XMLID_12_" fill="none" stroke="#FFFFFF" stroke-width="10" stroke-miterlimit="10" d="M970.398,656.825
			c1.863,0.004,2.975-2.336,1.896-3.857"/>
		
			<line id="XMLID_11_" fill="none" stroke="#FFFFFF" stroke-width="10" stroke-miterlimit="10" x1="970.398" y1="656.825" x2="66.25" y2="656.825"/>
		<path id="XMLID_10_" fill="none" stroke="#FFFFFF" stroke-width="10" stroke-miterlimit="10" d="M654.405,494.071v-17.98
			l4.041-7.273l5.657-462.874c5.01-1.219,21.856-1.296,26.131,0l1.952,462.874l4.042,7.273v17.98"/>
		<path id="XMLID_9_" fill="none" stroke="#FFFFFF" stroke-width="10" stroke-miterlimit="10" d="M894.97,539.38h5.519l0.867-1.182
			c0.599-0.814,1.548-1.295,2.558-1.295h13.841c1.076,0,2.078,0.547,2.664,1.447l1.285,1.986h2.828l1.546-2.389
			c0.422-0.652,1.146-1.047,1.923-1.047h43.496c1.021,0,1.922,0.68,2.203,1.66l1.949,6.824l5.051-0.336
			c0,0,0.203-9.697-4.039-11.381v-22.225l1.797-6.361c0.551-1.945,0.842-3.957,0.867-5.979l5.994-471.707
			c0.016-1.254,1.035-2.262,2.291-2.262h22.268c1.26,0,2.281,1.016,2.291,2.273l3.646,469.102c0.025,3.326,0.68,6.619,1.926,9.703
			l2.355,5.838v63.705c0,2.904-2.283,5.293-5.184,5.426c0,0-16.227,2.084-21.486,0.979c-5.117-1.078-10.236-3.771-12.527-9.496
			h-5.654l-0.734,5.297c-0.158,1.133-1.127,1.979-2.271,1.979h-43.917"/>
		
			<line id="XMLID_8_" fill="none" stroke="#FFFFFF" stroke-width="10" stroke-miterlimit="10" x1="924.531" y1="540.339" x2="925.033" y2="575.489"/>
		
			<line id="XMLID_7_" fill="none" stroke="#FFFFFF" stroke-width="10" stroke-miterlimit="10" x1="975.648" y1="545.39" x2="975.244" y2="572.665"/>
		
			<line id="XMLID_6_" fill="none" stroke="#FFFFFF" stroke-width="10" stroke-miterlimit="10" x1="980.699" y1="545.39" x2="980.9" y2="572.665"/>
		
			<line id="XMLID_5_" fill="none" stroke="#FFFFFF" stroke-width="10" stroke-miterlimit="10" x1="20.9" y1="488.284" x2="57.196" y2="488.284"/>
		
			<line id="XMLID_4_" fill="none" stroke="#FFFFFF" stroke-width="10" stroke-miterlimit="10" x1="344.527" y1="453.8" x2="378.021" y2="453.8"/>
		
			<line id="XMLID_3_" fill="none" stroke="#FFFFFF" stroke-width="10" stroke-miterlimit="10" x1="658.628" y1="453.8" x2="692.123" y2="453.8"/>
		
			<line id="XMLID_2_" fill="none" stroke="#FFFFFF" stroke-width="10" stroke-miterlimit="10" x1="979.461" y1="488.284" x2="1015.502" y2="488.284"/>
	</g>
	<circle fill="#DE1821" cx="1742.17" cy="440.278" r="224"/>
</g>
<line fill="none" stroke="#FFFFFF" stroke-width="10" stroke-linecap="square" stroke-miterlimit="10" x1="1679.982" y1="382.36" x2="1795.818" y2="498.196"/>
<line fill="none" stroke="#FFFFFF" stroke-width="10" stroke-linecap="square" stroke-miterlimit="10" x1="1795.818" y1="382.36" x2="1679.981" y2="498.196"/>
</svg>
