<?xml version="1.0" encoding="utf-8"?>
<!-- Generator: Adobe Illustrator 16.0.0, SVG Export Plug-In . SVG Version: 6.00 Build 0)  -->
<!DOCTYPE svg PUBLIC "-//W3C//DTD SVG 1.1//EN" "http://www.w3.org/Graphics/SVG/1.1/DTD/svg11.dtd">
<svg version="1.1" id="Layer_1" xmlns="http://www.w3.org/2000/svg" xmlns:xlink="http://www.w3.org/1999/xlink" x="0px" y="0px"
	 width="2121.188px" height="728.336px" viewBox="-1153.538 -61 2121.188 728.336"
	 enable-background="new -1153.538 -61 2121.188 728.336" xml:space="preserve">
<g>
	<path id="XMLID_323_" fill="none" stroke="#FFFFFF" stroke-width="10" stroke-miterlimit="10" d="M-263.461,611.813h-885.076
		v-128.07c0-16.715,13.549-30.264,30.266-30.264h824.547c16.715,0,30.266,13.549,30.266,30.264L-263.461,611.813L-263.461,611.813z"
		/>
	<polyline id="XMLID_364_" fill="none" stroke="#FFFFFF" stroke-width="10" stroke-miterlimit="10" points="-1121.436,611.813 
		-1121.436,662.336 -290.563,662.336 -290.563,611.813 	"/>
	
		<line id="XMLID_390_" fill="none" stroke="#FFFFFF" stroke-width="10" stroke-miterlimit="10" x1="-1092.639" y1="532.379" x2="-977.081" y2="532.379"/>
	
		<line id="XMLID_391_" fill="none" stroke="#FFFFFF" stroke-width="10" stroke-miterlimit="10" x1="-517" y1="453.54" x2="-517" y2="509.698"/>
	
		<line id="XMLID_392_" fill="none" stroke="#FFFFFF" stroke-width="10" stroke-miterlimit="10" x1="-423.04" y1="453.54" x2="-423.04" y2="509.698"/>
	
		<line id="XMLID_393_" fill="none" stroke="#FFFFFF" stroke-width="10" stroke-miterlimit="10" x1="-330.161" y1="453.54" x2="-330.161" y2="509.698"/>
	
		<line id="XMLID_394_" fill="none" stroke="#FFFFFF" stroke-width="10" stroke-miterlimit="10" x1="-469.479" y1="453.54" x2="-469.479" y2="509.698"/>
	
		<line id="XMLID_395_" fill="none" stroke="#FFFFFF" stroke-width="10" stroke-miterlimit="10" x1="-376.6" y1="453.54" x2="-376.6" y2="509.698"/>
	
		<rect id="XMLID_396_" x="-1071.999" y="69.781" fill="none" stroke="#FFFFFF" stroke-width="10" stroke-miterlimit="10" width="37.139" height="384.024"/>
</g>
<g id="XMLID_1795_">
	<path id="XMLID_1836_" fill="none" stroke="#FFFFFF" stroke-width="10" stroke-miterlimit="10" d="M-60.407,657.336"/>
	
		<line id="XMLID_1835_" fill="none" stroke="#FFFFFF" stroke-width="10" stroke-miterlimit="10" x1="-60.407" y1="657.336" x2="9.62" y2="575.245"/>
	<path id="XMLID_1834_" fill="none" stroke="#FFFFFF" stroke-width="10" stroke-miterlimit="10" d="M-2.75,595.826
		c-1.862,0.004-2.974-2.337-1.896-3.857"/>
	<path id="XMLID_1833_" fill="none" stroke="#FFFFFF" stroke-width="10" stroke-miterlimit="10" d="M313.245,433.072V415.09
		l-4.041-7.272l-5.657-462.875c-5.01-1.219-21.856-1.296-26.131,0l-1.952,462.875l-4.041,7.272v17.981"/>
	<path id="XMLID_1831_" fill="none" stroke="#FFFFFF" stroke-width="10" stroke-miterlimit="10" d="M72.679,478.38h-5.519
		l-0.867-1.182c-0.598-0.814-1.548-1.295-2.558-1.295H49.895c-1.076,0-2.079,0.546-2.663,1.447l-1.284,1.985H43.12l-1.546-2.388
		c-0.422-0.652-1.146-1.047-1.923-1.047H-3.845c-1.022,0-1.922,0.679-2.203,1.66l-1.95,6.824l-5.051-0.337
		c0,0-0.202-9.697,4.041-11.381v-22.225l-1.798-6.36c-0.55-1.946-0.841-3.958-0.867-5.979l-5.994-471.708
		c-0.016-1.254-1.036-2.262-2.29-2.262h-22.269c-1.259,0-2.281,1.015-2.291,2.273l-3.647,469.103
		c-0.023,3.326-0.678,6.618-1.923,9.703l-2.358,5.837v63.706c0,2.903,2.284,5.293,5.187,5.425c0,0,16.224,2.084,21.485,0.979
		c5.116-1.078,10.234-3.771,12.525-9.496h5.656l0.736,5.298c0.155,1.133,1.125,1.977,2.269,1.977h43.916"/>
	
		<line id="XMLID_1830_" fill="none" stroke="#FFFFFF" stroke-width="10" stroke-miterlimit="10" x1="43.119" y1="479.339" x2="42.615" y2="514.49"/>
	
		<line id="XMLID_1829_" fill="none" stroke="#FFFFFF" stroke-width="10" stroke-miterlimit="10" x1="-7.999" y1="484.39" x2="-7.594" y2="511.666"/>
	
		<line id="XMLID_1828_" fill="none" stroke="#FFFFFF" stroke-width="10" stroke-miterlimit="10" x1="-13.049" y1="484.39" x2="-13.251" y2="511.666"/>
	<polygon id="XMLID_1826_" fill="none" stroke="#FFFFFF" stroke-width="10" stroke-miterlimit="10" points="-60.407,657.336 
		-26.182,597.128 110.397,433.072 788.252,433.072 924.831,597.128 959.056,657.336 	"/>
	<path id="XMLID_1824_" fill="none" stroke="#FFFFFF" stroke-width="10" stroke-miterlimit="10" d="M959.056,657.336"/>
	<path id="XMLID_1823_" fill="none" stroke="#FFFFFF" stroke-width="10" stroke-miterlimit="10" d="M788.252,433.072
		l100.778,142.174c1.078,1.52-0.012,3.622-1.875,3.619H11.494c-1.863,0.003-2.951-2.102-1.875-3.619l100.778-142.173"/>
	
		<line id="XMLID_1822_" fill="none" stroke="#FFFFFF" stroke-width="10" stroke-miterlimit="10" x1="959.056" y1="657.336" x2="889.03" y2="575.245"/>
	<path id="XMLID_1821_" fill="none" stroke="#FFFFFF" stroke-width="10" stroke-miterlimit="10" d="M901.399,595.826
		c1.862,0.004,2.974-2.337,1.896-3.857"/>
	
		<line id="XMLID_1820_" fill="none" stroke="#FFFFFF" stroke-width="10" stroke-miterlimit="10" x1="901.399" y1="595.826" x2="-2.75" y2="595.826"/>
	<path id="XMLID_1819_" fill="none" stroke="#FFFFFF" stroke-width="10" stroke-miterlimit="10" d="M585.405,433.072V415.09
		l4.041-7.272l5.657-462.875c5.01-1.219,21.856-1.296,26.131,0l1.952,462.875l4.042,7.272v17.981"/>
	<path id="XMLID_1817_" fill="none" stroke="#FFFFFF" stroke-width="10" stroke-miterlimit="10" d="M825.97,478.38h5.519
		l0.867-1.182c0.599-0.814,1.548-1.295,2.558-1.295h13.841c1.076,0,2.078,0.546,2.664,1.447l1.285,1.985h2.828l1.546-2.388
		c0.422-0.652,1.146-1.047,1.923-1.047h43.495c1.021,0,1.922,0.679,2.203,1.66l1.949,6.824l5.052-0.337c0,0,0.202-9.697-4.04-11.381
		v-22.225l1.798-6.36c0.55-1.946,0.842-3.958,0.867-5.979l5.993-471.707c0.017-1.254,1.036-2.262,2.291-2.262h22.269
		c1.259,0,2.281,1.016,2.291,2.273l3.646,469.103c0.025,3.326,0.68,6.618,1.926,9.702l2.355,5.838v63.706
		c0,2.903-2.284,5.293-5.185,5.425c0,0-16.226,2.084-21.485,0.979c-5.118-1.078-10.236-3.771-12.527-9.496h-5.654l-0.735,5.298
		c-0.158,1.133-1.126,1.978-2.271,1.978h-43.916"/>
	
		<line id="XMLID_1816_" fill="none" stroke="#FFFFFF" stroke-width="10" stroke-miterlimit="10" x1="855.531" y1="479.339" x2="856.033" y2="514.49"/>
	
		<line id="XMLID_1815_" fill="none" stroke="#FFFFFF" stroke-width="10" stroke-miterlimit="10" x1="906.648" y1="484.39" x2="906.244" y2="511.666"/>
	
		<line id="XMLID_1814_" fill="none" stroke="#FFFFFF" stroke-width="10" stroke-miterlimit="10" x1="911.699" y1="484.39" x2="911.901" y2="511.666"/>
	
		<line id="XMLID_1799_" fill="none" stroke="#FFFFFF" stroke-width="10" stroke-miterlimit="10" x1="-48.1" y1="427.284" x2="-11.804" y2="427.284"/>
	
		<line id="XMLID_1798_" fill="none" stroke="#FFFFFF" stroke-width="10" stroke-miterlimit="10" x1="275.527" y1="392.799" x2="309.021" y2="392.799"/>
	
		<line id="XMLID_1797_" fill="none" stroke="#FFFFFF" stroke-width="10" stroke-miterlimit="10" x1="589.628" y1="392.799" x2="623.123" y2="392.799"/>
	
		<line id="XMLID_1796_" fill="none" stroke="#FFFFFF" stroke-width="10" stroke-miterlimit="10" x1="910.46" y1="427.284" x2="946.501" y2="427.284"/>
</g>
<line fill="none" x1="238.15" y1="121.836" x2="548.15" y2="121.836"/>
<g>
	<g>
		
			<line fill="none" stroke="#FFFFFF" stroke-width="10" stroke-linecap="square" stroke-miterlimit="10" x1="-715.961" y1="347.778" x2="-715.961" y2="341.778"/>
		
			<line fill="none" stroke="#FFFFFF" stroke-width="10" stroke-linecap="square" stroke-miterlimit="10" stroke-dasharray="11.2,22.4" x1="-715.961" y1="319.377" x2="-715.961" y2="128.978"/>
		<polyline fill="none" stroke="#FFFFFF" stroke-width="10" stroke-linecap="square" stroke-miterlimit="10" points="
			-715.961,117.778 -715.961,111.778 -709.961,111.778 		"/>
		
			<line fill="none" stroke="#FFFFFF" stroke-width="10" stroke-linecap="square" stroke-miterlimit="10" stroke-dasharray="12.1364,24.2727" x1="-685.688" y1="111.778" x2="-188.098" y2="111.778"/>
		
			<line fill="none" stroke="#FFFFFF" stroke-width="10" stroke-linecap="square" stroke-miterlimit="10" x1="-175.961" y1="111.778" x2="-169.961" y2="111.778"/>
	</g>
</g>
<rect x="-752.28" y="356.778" fill="none" stroke="#FFFFFF" stroke-width="10" stroke-linecap="square" stroke-miterlimit="10" width="72.007" height="45.021"/>
<line fill="none" stroke="#FFFFFF" stroke-width="10" stroke-linecap="square" stroke-miterlimit="10" x1="-715.961" y1="357.778" x2="-715.961" y2="381.289"/>
<line fill="none" stroke="#FFFFFF" stroke-width="10" stroke-linecap="square" stroke-miterlimit="10" x1="-697.961" y1="357.778" x2="-697.961" y2="381.289"/>
<line fill="none" stroke="#FFFFFF" stroke-width="10" stroke-linecap="square" stroke-miterlimit="10" x1="-733.961" y1="357.778" x2="-733.961" y2="381.289"/>
<rect x="-161.364" y="75.774" fill="none" stroke="#FFFFFF" stroke-width="10" stroke-linecap="square" stroke-miterlimit="10" width="45.021" height="72.007"/>
<line fill="none" stroke="#FFFFFF" stroke-width="10" stroke-linecap="square" stroke-miterlimit="10" x1="-160.364" y1="111.463" x2="-136.853" y2="111.463"/>
<line fill="none" stroke="#FFFFFF" stroke-width="10" stroke-linecap="square" stroke-miterlimit="10" x1="-160.364" y1="93.463" x2="-136.853" y2="93.463"/>
<line fill="none" stroke="#FFFFFF" stroke-width="10" stroke-linecap="square" stroke-miterlimit="10" x1="-160.364" y1="129.463" x2="-136.853" y2="129.463"/>
</svg>
